<svg id="Layer_1" data-name="Layer 1" xmlns="http://www.w3.org/2000/svg" viewBox="0 0 385.78 75.05"><defs><style>.cls-1,.cls-3{fill:#2e72bc;}.cls-2{fill:#fff;}.cls-3{font-size:51px;font-family:Arial-BoldMT, Arial;font-weight:700;}</style></defs><title>logo-light</title><path d="M116.52,64.15V39.35h5.65l.5,4.2a8.68,8.68,0,0,1,3.3-3.5,9.88,9.88,0,0,1,5.15-1.3,9,9,0,0,1,7.15,2.9c1.7,1.93,2.55,4.77,2.55,8.5v14h-6.4V50.75a8,8,0,0,0-1.3-4.9,4.79,4.79,0,0,0-4.05-1.7,5.76,5.76,0,0,0-4.45,1.9,7.64,7.64,0,0,0-1.7,5.3v12.8Zm39.72.6a9.09,9.09,0,0,1-7.2-2.9c-1.67-1.93-2.5-4.77-2.5-8.5v-14h6.35v13.4a7.92,7.92,0,0,0,1.3,4.9,4.83,4.83,0,0,0,4.1,1.7,5.58,5.58,0,0,0,4.35-1.9,7.56,7.56,0,0,0,1.75-5.3V39.35h6.4v24.8h-5.65l-.5-4.2a8.74,8.74,0,0,1-3.35,3.5A9.56,9.56,0,0,1,156.24,64.75Zm18.77-.6,9-12.4-9-12.4h6.85l6.3,8.8,6.25-8.8h6.9l-9.05,12.4,9.05,12.4h-6.9l-6.25-8.8-6.3,8.8Zm41.42,0a9.63,9.63,0,0,1-6.25-1.9c-1.56-1.27-2.35-3.52-2.35-6.75V44.7h-4.25V39.35h4.25l.75-6.65h5.65v6.65h6.7V44.7h-6.7V55.55a3.35,3.35,0,0,0,.75,2.5,4.38,4.38,0,0,0,2.7.65h3.1v5.45Zm7.9,5.55,12.5-44.4h6.25L230.53,69.7Z" transform="translate(-14.49 -9.97)"/><rect class="cls-1" width="75.05" height="75.05" rx="6.75"/><path class="cls-2" d="M62.57,42.47l-3.23,5.61c-2.31,4-4.6,8-6.93,12A13.09,13.09,0,0,1,40.32,67c-4.3,0-8.61-.09-12.92,0a4,4,0,0,1-3.66-6.26c6-10.2,11.81-20.46,17.69-30.71A3.84,3.84,0,0,1,45,28a3.9,3.9,0,0,1,3.46,2.18Q51.77,36,55.13,41.81c.1.18.22.35.39.61l2-3.39c.56-1,1.11-2,1.69-2.93a3.87,3.87,0,0,1,6.81,0q7.14,12.4,14.26,24.81c1.72,3-.11,6.11-3.58,6.11h-21a3.38,3.38,0,0,1,.17-.49c1-1.71,2-3.41,2.94-5.13a.92.92,0,0,1,.94-.53c4.19,0,8.38,0,12.57,0h.92ZM30.81,60.88h.82c2.87,0,5.75,0,8.62,0A7.31,7.31,0,0,0,47.12,57c1.51-2.6,3-5.22,4.52-7.81a1,1,0,0,0,0-1.2c-2.13-3.68-4.24-7.37-6.36-11.06-.1-.17-.21-.33-.37-.59Z" transform="translate(-14.49 -9.97)"/><text class="cls-3" transform="translate(233.98 55.24)">kudra</text></svg>